<svg width="207" height="38" viewBox="0 0 207 38" fill="none" xmlns="http://www.w3.org/2000/svg">
<path d="M205.523 23.0272C205.89 22.695 206.218 22.5594 206.506 22.6206C206.795 22.6818 206.948 22.9573 206.965 23.447C206.965 23.5694 206.944 23.6918 206.9 23.8142C206.856 23.9366 206.808 24.0459 206.756 24.1421C206.703 24.2383 206.624 24.3389 206.519 24.4438C206.415 24.5487 206.318 24.6405 206.231 24.7192C206.143 24.7979 206.039 24.881 205.916 24.9684C205.794 25.0559 205.689 25.1302 205.601 25.1914C205.514 25.2526 205.409 25.3226 205.287 25.4013C205.164 25.48 205.068 25.5455 204.998 25.598C204.561 25.8953 204.027 26.2232 203.398 26.5817C202.768 26.9402 202.147 27.2944 201.535 27.6441C200.923 27.9939 200.39 28.3349 199.935 28.6672C199.026 29.3492 198.025 30.2368 196.932 31.3298C195.839 32.4228 194.741 33.5158 193.639 34.6088C192.538 35.7018 191.506 36.5981 190.544 37.2976C189.862 37.8048 189.215 37.9491 188.603 37.7305C187.991 37.5118 187.597 36.9653 187.422 36.0909C187.352 35.6712 187.422 35.1116 187.632 34.4121C187.895 33.5377 188.34 32.7419 188.97 32.0249C189.442 31.4653 190.229 30.8882 191.331 30.2936C191.558 30.1712 191.812 30.0094 192.092 29.8083C192.372 29.6072 192.647 29.4148 192.918 29.2312C193.189 29.0476 193.447 28.8945 193.692 28.7721C194.461 28.4049 195.043 28.0201 195.436 27.6179C195.83 27.2157 196.149 26.6298 196.394 25.8603C197.268 22.9748 197.163 21.602 196.079 21.7419C195.624 21.8118 195.065 22.1179 194.4 22.66C193.753 23.1671 193.307 23.4994 193.062 23.6568C192.608 23.9017 192.232 23.6656 191.934 22.9485C191.585 22.0916 191.611 21.3746 192.013 20.7975C192.048 20.745 192.074 20.7101 192.092 20.6926C192.494 20.2204 192.782 19.7657 192.957 19.3285C193.185 18.8038 193.473 18.489 193.823 18.3841C194.313 18.2617 194.837 17.6103 195.397 16.4298C195.957 15.2494 196.079 14.5542 195.764 14.3443C195.484 14.2044 194.763 14.8078 193.6 16.1544C192.437 17.501 191.244 18.9831 190.019 20.6008C188.795 22.2184 188.122 23.0884 187.999 23.2109C187.23 23.9803 186.548 24.2514 185.953 24.0241C185.866 23.5169 186.119 22.8349 186.714 21.9779C186.889 21.7331 187.615 20.6357 188.891 18.6858C190.168 16.7359 191.209 15.3149 192.013 14.423C193.132 13.2338 193.998 12.4512 194.61 12.0753C195.222 11.6993 196.201 11.3801 197.548 11.1178C198.895 10.838 199.778 10.9254 200.197 11.3801C200.687 11.9572 200.866 12.766 200.735 13.8066C200.604 14.8471 200.163 15.9358 199.411 17.0725C199.043 17.6146 198.886 17.995 198.938 18.2136C198.991 18.4322 199.314 18.6814 199.909 18.9612C199.996 19.0137 200.075 19.0705 200.145 19.1317C200.215 19.193 200.276 19.2629 200.329 19.3416C200.381 19.4203 200.425 19.4902 200.46 19.5515C200.495 19.6127 200.53 19.7001 200.565 19.8138C200.6 19.9275 200.622 20.0062 200.63 20.0499C200.639 20.0936 200.661 20.1854 200.696 20.3253C200.731 20.4652 200.748 20.5527 200.748 20.5876C200.766 20.6576 200.88 20.9155 201.089 21.3615C201.299 21.8074 201.36 22.1703 201.273 22.4501C201.203 22.66 201.028 22.9398 200.748 23.2896C200.469 23.6218 200.302 23.9017 200.25 24.129C200.163 24.2864 200.141 24.4176 200.184 24.5225C200.228 24.6274 200.259 24.7149 200.276 24.7848C200.294 24.8548 200.355 24.9116 200.46 24.9553C200.565 24.999 200.652 25.0296 200.722 25.0471C200.792 25.0646 200.897 25.0734 201.037 25.0734C201.177 25.0734 201.29 25.069 201.378 25.0602C201.465 25.0515 201.575 25.0384 201.706 25.0209C201.837 25.0034 201.938 24.9947 202.008 24.9947C202.165 24.9772 202.331 24.9466 202.506 24.9029C202.681 24.8591 202.869 24.7848 203.07 24.6799C203.271 24.5749 203.442 24.4875 203.581 24.4176C203.721 24.3476 203.905 24.2296 204.132 24.0634C204.36 23.8973 204.517 23.7836 204.605 23.7224C204.692 23.6612 204.858 23.5344 205.103 23.342C205.348 23.1497 205.488 23.0447 205.523 23.0272Z" fill="#22221A"/>
<path d="M186.094 23.3945C186.461 23.0797 186.785 22.9529 187.064 23.0141C187.344 23.0753 187.484 23.342 187.484 23.8142C187.484 23.9366 187.462 24.059 187.419 24.1814C187.375 24.3038 187.309 24.4263 187.222 24.5487C187.134 24.6711 187.047 24.776 186.959 24.8635C186.872 24.9509 186.758 25.0471 186.618 25.152C186.479 25.2569 186.361 25.3444 186.264 25.4143C186.168 25.4843 186.05 25.5674 185.91 25.6635C185.77 25.7597 185.665 25.8253 185.595 25.8603C185.211 26.1401 184.8 26.3674 184.362 26.5423C184.328 26.5598 184.249 26.5948 184.126 26.6473C184.004 26.6997 183.89 26.7434 183.785 26.7784L183.628 26.8309C182.596 27.2506 181.494 27.4954 180.323 27.5654C179.099 27.6353 178.207 27.5304 177.647 27.2506C177.577 27.2156 177.306 27.0976 176.834 26.8965C176.362 26.6953 176.029 26.5248 175.837 26.3849C175.592 26.2101 175.374 25.9652 175.181 25.6504C174.919 25.8953 174.648 26.1314 174.368 26.3587C174.001 26.621 173.625 26.8396 173.24 27.0145C172.226 27.5392 171.5 27.9152 171.063 28.1425C170.293 28.5447 169.616 28.6584 169.03 28.4835C168.444 28.3086 167.757 27.784 166.97 26.9096C166.341 26.2101 165.969 25.7291 165.856 25.4668C165.742 25.2045 165.685 24.6973 165.685 23.9453C165.685 22.8785 165.851 21.768 166.183 20.6138C166.498 19.4421 166.629 18.8038 166.577 18.6989C166.472 18.5939 165.851 19.1361 164.714 20.3253C163.578 21.5145 162.458 22.7692 161.357 24.0896C160.255 25.41 159.704 26.1751 159.704 26.3849C159.704 26.5598 159.612 26.7478 159.429 26.9489C159.245 27.15 159.013 27.3118 158.734 27.4342C158.454 27.5566 158.209 27.5916 157.999 27.5392C157.649 27.4867 157.404 27.1894 157.265 26.6473C157.16 26.28 157.146 25.9521 157.225 25.6635C157.304 25.375 157.562 24.8635 157.999 24.129C158.244 23.6743 158.716 22.6381 159.416 21.0204C160.115 19.4028 160.71 18.2617 161.199 17.5971C161.287 17.4747 161.374 17.3698 161.462 17.2823C161.654 17.055 161.912 16.8845 162.236 16.7708C162.559 16.6571 162.843 16.6702 163.088 16.8101C163.176 16.8801 163.241 17.0593 163.285 17.3479C163.329 17.6365 163.385 17.7895 163.455 17.807C163.56 17.8245 163.814 17.6758 164.216 17.361C164.916 16.8014 166.026 16.3467 167.548 15.9969C168.16 15.8221 168.558 15.7565 168.741 15.8002C168.925 15.8439 169.148 15.9969 169.41 16.2593C169.777 16.644 169.965 17.1162 169.974 17.6758C169.983 18.2354 169.821 18.7513 169.489 19.2235C169.209 19.6432 168.868 20.4783 168.466 21.7287C168.063 22.9791 167.862 23.8404 167.862 24.3126C167.862 24.6449 167.963 25.0121 168.164 25.4143C168.365 25.8166 168.61 26.1488 168.899 26.4112C169.187 26.6735 169.463 26.8046 169.725 26.8046C170.075 26.8046 170.835 26.4636 172.007 25.7816C173.004 25.222 173.826 24.6711 174.473 24.129C173.983 22.8523 173.738 21.7156 173.738 20.7188C173.738 20.0017 173.861 19.0661 174.106 17.9119C174.123 17.8419 174.158 17.702 174.211 17.4922C174.263 17.2823 174.302 17.1206 174.329 17.0069C174.355 16.8932 174.394 16.7402 174.447 16.5478C174.499 16.3554 174.547 16.1937 174.591 16.0625C174.635 15.9314 174.691 15.7915 174.761 15.6428C174.831 15.4942 174.901 15.3674 174.971 15.2624C175.321 14.7553 175.601 14.3968 175.811 14.1869C176.738 13.2425 177.892 12.8228 179.273 12.9278C180.725 13.0502 181.521 13.5311 181.661 14.3705C181.748 15.0351 181.704 15.7128 181.529 16.4035C181.354 17.0943 181.136 17.6671 180.874 18.1218C180.611 18.5764 180.248 19.1667 179.785 19.8924C179.322 20.6182 178.994 21.1734 178.801 21.5582C178.049 22.9572 177.673 23.7967 177.673 24.0765C177.673 24.2863 177.883 24.5924 178.303 24.9946C178.583 25.2569 178.827 25.4056 179.037 25.4406C179.247 25.493 179.632 25.4755 180.192 25.3881C181.066 25.2482 182.01 25.0296 183.025 24.7323C183.427 24.6099 183.995 24.3913 184.73 24.0765C185.464 23.7617 185.919 23.5344 186.094 23.3945ZM177.542 19.617C178.224 18.3054 178.565 17.5184 178.565 17.2561C178.565 16.9238 178.39 16.714 178.04 16.6265C177.691 16.5391 177.42 16.6178 177.227 16.8626C177.052 17.0725 176.882 17.3785 176.716 17.7807C176.55 18.183 176.423 18.5939 176.335 19.0137C176.23 19.4159 176.143 19.8181 176.073 20.2203C176.021 20.6051 176.012 20.9286 176.047 21.1909C176.082 21.4533 176.161 21.5844 176.283 21.5844C176.44 21.5844 176.86 20.9286 177.542 19.617Z" fill="#22221A"/>
<path d="M155.064 11.6163C155.011 11.6687 154.946 11.7518 154.867 11.8655C154.788 11.9791 154.627 12.1802 154.382 12.4688C154.137 12.7574 153.897 13.0066 153.66 13.2164C153.424 13.4263 153.145 13.6143 152.821 13.7804C152.497 13.9466 152.196 14.0296 151.916 14.0296C151.951 13.9422 151.968 13.7061 151.968 13.3214L153.883 9.93739C153.883 9.93739 153.883 9.7625 153.883 9.41274C154.041 8.71321 154.784 8.68698 156.113 9.33404C156.131 9.35153 156.157 9.37339 156.192 9.39962C156.227 9.42586 156.279 9.48269 156.349 9.57013C156.419 9.65757 156.459 9.74939 156.467 9.84557C156.476 9.94176 156.437 10.0642 156.349 10.2128C156.262 10.3615 156.113 10.5058 155.903 10.6457L155.064 11.6163ZM151.916 14.0296H151.864C151.864 14.0296 151.868 14.0296 151.877 14.0296H151.916ZM160.573 23.2372C160.713 23.447 160.726 23.6481 160.612 23.8405C160.498 24.0329 160.179 24.3477 159.655 24.7849C158.815 25.4844 157.836 26.1227 156.717 26.6998C155.877 27.1195 155.007 27.2901 154.106 27.2114C153.206 27.1327 152.358 26.8747 151.562 26.4375C150.766 26.0003 150.08 25.4319 149.503 24.7324C148.681 23.7356 148.436 22.4327 148.768 20.8238C148.803 20.6839 148.873 20.2598 148.978 19.5515C149.083 18.8433 149.192 18.2093 149.306 17.6497C149.42 17.0901 149.546 16.7316 149.686 16.5742C149.844 16.3818 150.102 16.2506 150.46 16.1807C150.819 16.1107 151.19 16.1064 151.575 16.1676C151.96 16.2288 152.327 16.3424 152.677 16.5086C153.026 16.6747 153.267 16.8977 153.398 17.1775C153.529 17.4573 153.525 17.7721 153.385 18.1219C152.983 18.9613 152.782 19.5472 152.782 19.8794C152.782 20.1942 152.607 20.579 152.257 21.0337C151.96 21.4009 151.78 21.8337 151.719 22.3322C151.658 22.8306 151.741 23.1585 151.968 23.3159C152.161 23.3858 152.257 23.6044 152.257 23.9717C152.257 24.2865 152.484 24.645 152.939 25.0472C153.254 25.3445 153.503 25.5106 153.687 25.5456C153.87 25.5806 154.207 25.5369 154.697 25.4144C155.431 25.1521 156.358 24.6187 157.477 23.8143C158.352 23.1672 159.021 22.7956 159.484 22.6994C159.947 22.6032 160.31 22.7825 160.573 23.2372Z" fill="#22221A"/>
<path d="M148.633 23.8668C149.035 23.587 149.376 23.4952 149.656 23.5913C149.936 23.6875 150.058 23.9804 150.023 24.4701C150.006 24.5925 149.967 24.7193 149.905 24.8505C149.844 24.9816 149.761 25.0997 149.656 25.2046C149.551 25.3096 149.451 25.4057 149.354 25.4932C149.258 25.5806 149.132 25.6724 148.974 25.7686C148.817 25.8648 148.686 25.9391 148.581 25.9916C148.476 26.0441 148.34 26.114 148.174 26.2015C148.008 26.2889 147.899 26.3501 147.846 26.3851C147.409 26.6124 146.954 26.7961 146.482 26.936C146.465 26.9534 146.25 27.089 145.839 27.3426C145.428 27.5961 144.961 27.8759 144.436 28.182C143.911 28.488 143.483 28.6935 143.151 28.7985C142.696 28.9558 142.224 29.0783 141.734 29.1657C141.244 29.2531 140.728 29.31 140.186 29.3362C139.644 29.3624 139.124 29.3056 138.625 29.1657C138.127 29.0258 137.712 28.8159 137.379 28.5361C136.977 28.1689 136.649 27.6661 136.396 27.0278C136.142 26.3895 135.976 25.6987 135.897 24.9554C135.819 24.2122 135.779 23.517 135.779 22.8699C135.779 22.2229 135.805 21.6021 135.858 21.0075C135.875 20.92 135.976 20.1724 136.16 18.7646C136.343 17.3568 136.518 15.9752 136.684 14.6199L136.933 12.5869C136.724 12.4645 136.33 12.377 135.753 12.3246C135.403 12.3071 135.045 12.3071 134.678 12.3246C133.821 12.3246 133.217 12.2983 132.867 12.2459C132.798 12.2284 132.697 12.2196 132.566 12.2196C132.435 12.2196 132.303 12.2196 132.172 12.2196C132.041 12.2196 131.91 12.2196 131.779 12.2196C131.648 12.2196 131.543 12.2065 131.464 12.1803C131.385 12.154 131.337 12.1147 131.32 12.0622C131.285 11.7824 131.398 11.5813 131.661 11.4589C131.678 11.4414 131.796 11.3671 132.015 11.2359C132.234 11.1048 132.461 10.978 132.697 10.8555C132.933 10.7331 133.252 10.6238 133.654 10.5276C134.057 10.4315 134.468 10.3921 134.887 10.4096C136.199 10.532 137.017 10.5714 137.34 10.5276C137.664 10.4839 137.983 10.2959 138.298 9.96365C138.77 9.52644 139.399 8.38097 140.186 6.52722C140.221 6.45726 140.274 6.35234 140.344 6.21243C140.641 5.5129 140.886 4.96202 141.078 4.55979C141.271 4.15756 141.542 3.64603 141.891 3.0252C142.241 2.40437 142.626 1.8841 143.046 1.46438C143.465 1.04466 143.903 0.721131 144.357 0.493784C145.826 -0.205743 146.561 -0.162023 146.561 0.624946C146.561 1.07964 146.22 2.1027 145.538 3.69413C145.345 4.13133 145.205 4.47235 145.118 4.71719C145.013 5.03197 144.926 5.40797 144.856 5.84518C144.786 6.28238 144.62 6.71959 144.357 7.15679C143.938 7.8913 143.588 8.51213 143.308 9.01929C142.976 9.61389 142.853 9.96365 142.941 10.0686C143.028 10.2085 143.911 10.3659 145.59 10.5408C146.762 10.6632 147.474 10.7681 147.728 10.8555C147.982 10.943 148.091 11.1091 148.056 11.354C148.021 11.6862 147.829 11.8261 147.479 11.7737C147.339 11.7562 147.059 11.7474 146.639 11.7474C146.22 11.7649 145.748 11.7912 145.223 11.8261C144.698 11.8611 144.156 11.9136 143.596 11.9835C143.054 12.0535 142.6 12.106 142.232 12.1409C142.04 12.1759 141.786 12.7355 141.472 13.8198C141.157 14.9041 140.811 16.2201 140.435 17.7678C140.059 19.3155 139.784 20.3516 139.609 20.8763C138.717 23.552 138.831 25.3883 139.95 26.3851C140.457 26.8398 140.93 27.0584 141.367 27.0409C141.629 27.0409 141.918 26.9447 142.232 26.7523C142.285 26.6824 142.464 26.5774 142.77 26.4375C143.076 26.2976 143.391 26.1708 143.715 26.0572C144.038 25.9435 144.37 25.8255 144.711 25.703C145.052 25.5806 145.232 25.5194 145.249 25.5194C146.648 24.9598 147.776 24.4089 148.633 23.8668Z" fill="#22221A"/>
<path d="M136.59 22.7913C136.958 22.4591 137.286 22.3235 137.574 22.3847C137.863 22.446 138.016 22.7214 138.033 23.2111C138.033 23.351 138.011 23.4865 137.968 23.6177C137.924 23.7488 137.854 23.8712 137.758 23.9849C137.662 24.0986 137.565 24.2079 137.469 24.3128C137.373 24.4177 137.255 24.5227 137.115 24.6276C136.975 24.7325 136.857 24.82 136.761 24.8899C136.665 24.9599 136.538 25.043 136.381 25.1391C136.223 25.2353 136.118 25.3096 136.066 25.3621C135.646 25.6419 135.218 25.8693 134.78 26.0442C134.745 26.0616 134.693 26.0879 134.623 26.1228C134.588 26.2103 134.518 26.2802 134.413 26.3327C134.308 26.3852 134.151 26.4376 133.941 26.4901C133.539 26.7174 132.944 26.8748 132.157 26.9623C131.37 27.0497 130.653 27.0716 130.006 27.0279C129.359 26.9841 128.939 26.9098 128.747 26.8049C128.59 26.7 128.415 26.4814 128.222 26.1491C128.03 25.8168 127.864 25.4845 127.724 25.1523C127.584 24.82 127.497 24.5664 127.462 24.3915C127.339 23.8844 127.295 23.3422 127.33 22.7651C127.383 22.1705 127.479 21.2436 127.619 19.9845V19.6172C127.619 19.5298 127.588 19.4642 127.527 19.4205C127.466 19.3768 127.383 19.3462 127.278 19.3287C127.173 19.3287 127.033 19.3287 126.858 19.3287C126.648 19.3287 126.412 19.2937 126.15 19.2238C125.888 19.1538 125.63 19.0882 125.376 19.027C125.123 18.9658 124.9 18.9352 124.707 18.9352C124.725 18.9352 124.663 19.2106 124.524 19.7615C124.384 20.3124 124.204 20.8939 123.986 21.506C123.767 22.118 123.57 22.4766 123.396 22.5815C122.766 22.9487 122.101 23.2111 121.402 23.3685C120.492 23.5783 120.903 21.5934 122.635 17.4137C122.67 17.3088 122.757 17.0902 122.897 16.7579C123.037 16.4256 123.133 16.1939 123.186 16.0628C123.238 15.9316 123.321 15.7217 123.435 15.4332C123.549 15.1446 123.632 14.9085 123.684 14.7249C123.737 14.5413 123.793 14.3183 123.855 14.056C123.916 13.7937 123.96 13.5445 123.986 13.3084C124.012 13.0723 124.025 12.8318 124.025 12.587C124.025 12.3072 124.204 11.8088 124.563 11.0917C124.921 10.3747 125.206 9.93751 125.415 9.78012C125.695 9.62273 126.076 9.56589 126.557 9.60961C127.037 9.65333 127.357 9.76263 127.514 9.93751C127.724 10.1998 127.724 11.2142 127.514 12.9805C127.357 14.1347 127.287 14.8779 127.304 15.2102C127.322 15.56 127.418 15.8398 127.593 16.0496C127.803 16.2245 127.986 16.3076 128.144 16.2988C128.301 16.2901 128.598 16.1546 129.035 15.8922C129.683 15.525 130.15 15.3501 130.439 15.3676C130.727 15.3851 130.994 15.5862 131.239 15.9709C131.431 16.2508 131.519 16.5043 131.501 16.7317C131.484 16.959 131.353 17.3962 131.108 18.0433C130.758 18.9702 130.443 20.0282 130.163 21.2174C129.954 22.1618 129.888 22.8613 129.967 23.316C130.045 23.7707 130.33 24.3041 130.819 24.9162C131.029 25.2135 131.195 25.3796 131.318 25.4146C131.37 25.4321 131.462 25.4189 131.593 25.3752C131.724 25.3315 131.864 25.279 132.013 25.2178C132.161 25.1566 132.262 25.1173 132.315 25.0998C132.857 24.9599 133.215 24.8462 133.39 24.7588C134.737 24.0592 135.803 23.4034 136.59 22.7913Z" fill="#22221A"/>
<path d="M120.982 23.8406C121.314 23.5782 121.598 23.4689 121.835 23.5127C122.071 23.5564 122.189 23.7881 122.189 24.2078C122.189 24.2953 122.171 24.3871 122.136 24.4833C122.101 24.5794 122.062 24.6669 122.018 24.7456C121.974 24.8243 121.909 24.9073 121.821 24.9948C121.734 25.0822 121.655 25.1609 121.585 25.2309C121.515 25.3008 121.428 25.3752 121.323 25.4538C121.218 25.5325 121.131 25.5938 121.061 25.6375C120.991 25.6812 120.903 25.738 120.798 25.808C120.693 25.8779 120.615 25.9304 120.562 25.9654C120.23 26.1927 119.88 26.3851 119.513 26.5425C119.478 26.56 119.268 26.6649 118.883 26.8573L118.752 27.0147C118.28 27.4694 117.598 27.7492 116.706 27.8541C116.147 27.9241 115.714 27.9284 115.408 27.8672C115.102 27.806 114.677 27.653 114.135 27.4082C113.331 27.0234 112.798 26.7086 112.535 26.4638C112.36 26.3239 112.212 26.2627 112.089 26.2802C111.967 26.2977 111.739 26.4376 111.407 26.6999C110.34 27.4694 109.068 27.9022 107.59 27.9984C106.113 28.0946 105.146 27.8016 104.692 27.1196C104.412 26.6824 104.285 25.8342 104.311 24.5751C104.338 23.3159 104.499 22.4153 104.797 21.8731C105.059 21.401 105.26 21.0512 105.4 20.8238C105.557 20.5965 105.706 20.3866 105.846 20.1943C105.986 19.9844 106.222 19.6784 106.554 19.2761C107.656 17.9121 108.522 16.9764 109.151 16.4693C109.641 16.0845 110.218 15.7566 110.883 15.4856C111.547 15.2145 112.242 15.0353 112.968 14.9478C113.694 14.8604 114.336 14.9566 114.896 15.2364C115.578 15.5861 115.998 16.1851 116.155 17.0333C116.313 17.8815 116.295 18.7034 116.103 19.4991C115.91 20.2948 115.639 21.0424 115.29 21.742C114.992 22.4065 114.769 23.1323 114.621 23.9193C114.472 24.7062 114.476 25.2221 114.634 25.467C114.966 26.1315 116.059 26.1752 117.913 25.5981C117.983 25.5806 118.053 25.5719 118.123 25.5719C118.228 25.5369 118.306 25.5019 118.359 25.467C119.478 24.8899 120.352 24.3477 120.982 23.8406ZM113.06 18.9089C113.252 18.804 113.357 18.7165 113.375 18.6466C113.392 18.5766 113.348 18.4892 113.243 18.3842C113.034 18.1569 112.736 18.0082 112.352 17.9383C111.967 17.8683 111.591 17.8858 111.224 17.9908C110.856 18.0782 110.301 18.428 109.558 19.04C108.815 19.6521 108.312 20.1768 108.049 20.614C107.7 21.1211 107.402 21.5758 107.158 21.9781C106.86 22.3978 106.659 23.0099 106.554 23.8143C106.449 24.6188 106.493 25.1434 106.685 25.3883C106.86 25.5981 107.245 25.7031 107.84 25.7031C108.434 25.7031 108.994 25.6069 109.518 25.4145C110.026 25.1697 110.402 24.8024 110.646 24.3127C111.066 23.4908 111.407 22.8262 111.67 22.3191C112.124 21.5321 112.352 20.9987 112.352 20.7189C112.352 20.544 112.426 20.3648 112.575 20.1812C112.723 19.9975 112.763 19.8008 112.693 19.5909C112.605 19.3111 112.728 19.0838 113.06 18.9089Z" fill="#22221A"/>
<path d="M104.91 23.0536C105.295 22.7388 105.631 22.612 105.92 22.6732C106.208 22.7344 106.361 23.0099 106.379 23.4995C106.379 23.6569 106.344 23.8143 106.274 23.9717C106.204 24.1291 106.125 24.2646 106.038 24.3783C105.95 24.492 105.819 24.6188 105.644 24.7587C105.469 24.8986 105.334 25.0035 105.238 25.0735C105.142 25.1434 104.993 25.244 104.792 25.3751C104.591 25.5063 104.464 25.5894 104.411 25.6243C103.869 25.9916 103.345 26.3851 102.837 26.8048C102.155 27.3469 101.447 27.7229 100.713 27.9328C99.8557 28.1776 99.1911 28.3088 98.719 28.3263C98.2293 28.3438 97.6259 28.2476 96.9089 28.0377C96.2269 27.8628 95.6804 27.6311 95.2694 27.3426C94.8584 27.054 94.5393 26.6824 94.3119 26.2277C94.0846 25.773 93.9665 25.2003 93.9578 24.5095C93.949 23.8187 94.0321 23.0361 94.207 22.1617C94.3644 21.2698 94.6267 20.1943 94.994 18.9351C95.0989 18.6203 95.0639 18.4629 94.889 18.4629C94.4169 18.4629 93.4987 19.3024 92.1346 20.9812C90.7706 22.6601 89.7125 24.234 88.9605 25.703C88.4359 26.7174 87.9987 27.3294 87.6489 27.5393C87.2992 27.7492 86.9057 27.6442 86.4685 27.2245C86.1012 26.8922 85.9263 26.5731 85.9438 26.267C85.9613 25.961 86.1887 25.3096 86.6259 24.3127C86.9931 23.5782 87.1767 23.0711 87.1767 22.7913C87.1767 22.5464 87.3604 22.0393 87.7276 21.2698C87.9725 20.3954 88.0512 19.9319 87.9637 19.8795C87.7713 19.8795 87.391 20.1899 86.8226 20.8107C86.2542 21.4315 85.6596 22.1748 85.0388 23.0405C84.418 23.9061 83.9502 24.6363 83.6354 25.2309C83.1457 26.1402 82.6998 26.7174 82.2975 26.9622C81.8953 27.207 81.4931 27.1546 81.0908 26.8048C80.7061 26.455 80.5575 26.0222 80.6449 25.5063C80.7323 24.9904 81.0821 24.1466 81.6942 22.9749C81.8691 22.6076 82.0396 22.0699 82.2057 21.3616C82.3719 20.6533 82.5336 20.1505 82.691 19.8532C83.2681 18.6116 83.8977 17.7284 84.5797 17.2038C84.7371 17.0814 84.9033 16.9721 85.0782 16.8759C85.253 16.7797 85.4323 16.7185 85.6159 16.6922C85.7995 16.666 85.922 16.7228 85.9832 16.8628C86.0444 17.0027 86.04 17.2387 85.9701 17.571C85.8127 18.1132 85.8739 18.358 86.1537 18.3055C86.3635 18.288 86.6084 18.052 86.8882 17.5973C87.2904 16.9852 87.7626 16.4868 88.3047 16.102C88.5146 15.9621 88.6895 15.8572 88.8294 15.7872C89.0043 15.7173 89.1179 15.6736 89.1704 15.6561C89.2578 15.6036 89.3803 15.5861 89.5376 15.6036C89.695 15.6211 89.8087 15.6386 89.8787 15.6561C89.9486 15.6561 90.0885 15.691 90.2984 15.761C90.5257 15.8309 90.7006 15.8747 90.823 15.8922C91.3127 15.9971 91.5575 16.137 91.5575 16.3119C91.5925 16.3469 91.6187 16.6092 91.6362 17.0988C91.6712 17.3262 91.7149 17.4923 91.7674 17.5973C91.8199 17.7022 91.9248 17.7503 92.0822 17.7415C92.2396 17.7328 92.4319 17.6716 92.6593 17.5579C92.8866 17.4442 93.2277 17.2388 93.6824 16.9415C94.7316 16.2769 95.6323 15.8922 96.3843 15.7872C96.9439 15.7348 97.2937 15.7479 97.4336 15.8266C97.5735 15.9053 97.7221 16.1108 97.8795 16.443C98.0894 16.9852 98.1331 17.676 98.0107 18.5154C97.8883 19.3548 97.6609 20.1418 97.3286 20.8763C96.9439 21.6108 96.7515 22.1704 96.7515 22.5552C96.7515 22.87 96.6553 23.3334 96.463 23.9455C96.2706 24.4701 96.3012 24.9598 96.5548 25.4145C96.8084 25.8692 97.2062 26.149 97.7484 26.2539C98.0631 26.3064 98.4741 26.2802 98.9813 26.1752C99.1212 26.1402 99.9694 25.7905 101.526 25.1259C101.526 25.1259 101.688 25.0297 102.011 24.8374C102.335 24.645 102.684 24.4395 103.06 24.2209C103.436 24.0023 103.808 23.7793 104.175 23.552C104.543 23.3246 104.787 23.1585 104.91 23.0536Z" fill="#22221A"/>
<path d="M71.6984 23.8406C72.0307 23.5782 72.3149 23.4689 72.551 23.5127C72.7871 23.5564 72.9051 23.7881 72.9051 24.2078C72.9051 24.2953 72.8876 24.3871 72.8526 24.4833C72.8177 24.5794 72.7783 24.6669 72.7346 24.7456C72.6909 24.8243 72.6253 24.9073 72.5379 24.9948C72.4504 25.0822 72.3717 25.1609 72.3018 25.2309C72.2318 25.3008 72.1444 25.3752 72.0394 25.4538C71.9345 25.5325 71.8471 25.5938 71.7771 25.6375C71.7072 25.6812 71.6197 25.738 71.5148 25.808C71.4099 25.8779 71.3312 25.9304 71.2787 25.9654C70.9464 26.1927 70.5967 26.3851 70.2294 26.5425C70.1944 26.56 69.9846 26.6649 69.5998 26.8573L69.4687 27.0147C68.9965 27.4694 68.3145 27.7492 67.4226 27.8541C66.8629 27.9241 66.4301 27.9284 66.1241 27.8672C65.818 27.806 65.3939 27.653 64.8518 27.4082C64.0473 27.0234 63.5139 26.7086 63.2516 26.4638C63.0767 26.3239 62.9281 26.2627 62.8057 26.2802C62.6833 26.2977 62.4559 26.4376 62.1236 26.6999C61.0569 27.4694 59.7846 27.9022 58.3068 27.9984C56.8291 28.0946 55.8629 27.8016 55.4082 27.1196C55.1283 26.6824 55.0016 25.8342 55.0278 24.5751C55.054 23.3159 55.2158 22.4153 55.5131 21.8731C55.7754 21.401 55.9765 21.0512 56.1164 20.8238C56.2738 20.5965 56.4225 20.3866 56.5624 20.1943C56.7023 19.9844 56.9384 19.6784 57.2706 19.2761C58.3724 17.9121 59.2381 16.9764 59.8677 16.4693C60.3573 16.0845 60.9344 15.7566 61.599 15.4856C62.2635 15.2145 62.9587 15.0353 63.6845 14.9478C64.4102 14.8604 65.0529 14.9566 65.6125 15.2364C66.2946 15.5861 66.7143 16.1851 66.8717 17.0333C67.0291 17.8815 67.0116 18.7034 66.8192 19.4991C66.6268 20.2948 66.3558 21.0424 66.006 21.742C65.7087 22.4065 65.4857 23.1323 65.3371 23.9193C65.1884 24.7062 65.1928 25.2221 65.3502 25.467C65.6825 26.1315 66.7755 26.1752 68.6292 25.5981C68.6992 25.5806 68.7692 25.5719 68.8391 25.5719C68.944 25.5369 69.0227 25.5019 69.0752 25.467C70.1944 24.8899 71.0688 24.3477 71.6984 23.8406ZM63.7763 18.9089C63.9686 18.804 64.0736 18.7165 64.0911 18.6466C64.1085 18.5766 64.0648 18.4892 63.9599 18.3842C63.75 18.1569 63.4527 18.0082 63.068 17.9383C62.6833 17.8683 62.3073 17.8858 61.94 17.9908C61.5728 18.0782 61.0175 18.428 60.2743 19.04C59.531 19.6521 59.0282 20.1768 58.7659 20.614C58.4161 21.1211 58.1188 21.5758 57.874 21.9781C57.5767 22.3978 57.3756 23.0099 57.2706 23.8143C57.1657 24.6188 57.2094 25.1434 57.4018 25.3883C57.5767 25.5981 57.9614 25.7031 58.556 25.7031C59.1506 25.7031 59.7103 25.6069 60.2349 25.4145C60.7421 25.1697 61.1181 24.8024 61.3629 24.3127C61.7826 23.4908 62.1236 22.8262 62.386 22.3191C62.8406 21.5321 63.068 20.9987 63.068 20.7189C63.068 20.544 63.1423 20.3648 63.291 20.1812C63.4396 19.9975 63.479 19.8008 63.409 19.5909C63.3216 19.3111 63.444 19.0838 63.7763 18.9089Z" fill="#22221A"/>
<path d="M51.0578 18.2272C50.4807 18.9267 49.9823 19.5825 49.5626 20.1946C49.1429 20.8067 48.9505 21.1914 48.9855 21.3488C48.9855 21.6286 49.2303 22.267 49.72 23.2638C50.3146 24.4005 51.0054 24.9689 51.7923 24.9689C51.9497 24.9689 52.1115 24.9514 52.2776 24.9164C52.4438 24.8814 52.6536 24.8202 52.9072 24.7328C53.1608 24.6454 53.3225 24.5929 53.3925 24.5754C53.5849 24.5229 53.8997 24.3655 54.3369 24.1032C54.879 23.7709 55.3949 23.4124 55.8846 23.0277C56.2693 22.6954 56.606 22.5599 56.8945 22.6211C57.1831 22.6823 57.3361 22.9577 57.3536 23.4474C57.3536 23.6048 57.3142 23.7622 57.2355 23.9196C57.1568 24.077 57.0738 24.2125 56.9863 24.3262C56.8989 24.4399 56.7721 24.571 56.606 24.7197C56.4398 24.8683 56.3043 24.9776 56.1994 25.0476C56.0944 25.1175 55.9458 25.2181 55.7534 25.3493C55.561 25.4804 55.4386 25.5635 55.3862 25.5985C55.2462 25.6859 55.0364 25.8171 54.7566 25.9919C54.4768 26.1668 54.2669 26.298 54.127 26.3854C53.5324 26.7877 52.9291 27.0238 52.317 27.0937C51.7224 27.1811 51.2764 27.1855 50.9791 27.1068C50.6818 27.0281 50.2446 26.7964 49.6675 26.4117C48.933 25.9045 48.3384 25.3536 47.8837 24.759C47.429 24.1644 47.123 23.5961 46.9656 23.0539C46.8082 22.5118 46.7295 21.8822 46.7295 21.1652C46.7295 20.4482 46.7732 19.8055 46.8607 19.2371C46.9481 18.6688 47.0574 17.9692 47.1886 17.1385C47.3197 16.3079 47.394 15.5952 47.4115 15.0006C47.429 14.7733 47.4509 14.5372 47.4771 14.2923C47.5033 14.0475 47.5296 13.8245 47.5558 13.6234C47.582 13.4223 47.6214 13.1818 47.6739 12.902C47.7263 12.6222 47.7657 12.4036 47.7919 12.2462C47.8181 12.0888 47.875 11.8571 47.9624 11.5511C48.0498 11.245 48.1067 11.0308 48.1329 10.9084C48.1592 10.786 48.2204 10.5542 48.3165 10.2132C48.4127 9.87219 48.4739 9.65796 48.5002 9.57052C48.5264 9.48308 48.5964 9.25136 48.71 8.87537C48.8237 8.49937 48.8893 8.27639 48.9068 8.20644C49.0991 7.55938 49.2653 7.0872 49.4052 6.7899C49.5626 6.47511 49.7768 6.16469 50.0479 5.85865C50.3189 5.55261 50.5638 5.3034 50.7824 5.11103C51.001 4.91866 51.2939 4.67382 51.6612 4.37653C51.8011 4.2716 52.0415 4.07923 52.3826 3.79941C52.7236 3.5196 52.9728 3.32286 53.1302 3.20919C53.2876 3.09551 53.5018 2.93812 53.7729 2.73701C54.0439 2.53589 54.3063 2.36101 54.5598 2.21236C54.8134 2.06371 55.0889 1.91943 55.3862 1.77953C56.0507 1.44725 56.5666 1.32483 56.9339 1.41227C57.2137 1.48223 57.4498 1.63525 57.6421 1.87134C57.8345 2.10743 57.9657 2.37413 58.0356 2.67143C58.0881 2.88128 58.1274 3.09551 58.1537 3.31412C58.1799 3.53272 58.1843 3.76881 58.1668 4.02239C58.1493 4.27597 58.1362 4.4902 58.1274 4.66508C58.1187 4.83996 58.0793 5.07605 58.0094 5.37335C57.9394 5.67065 57.8913 5.88488 57.8651 6.01605C57.8389 6.14721 57.7689 6.37455 57.6553 6.69808C57.5416 7.02162 57.4716 7.2271 57.4454 7.31454C57.4192 7.40199 57.3405 7.62496 57.2093 7.98347C57.0781 8.34198 57.0038 8.54746 56.9863 8.59993C56.5491 9.77164 56.1994 10.5411 55.937 10.9084C55.7622 11.1532 55.255 12.0713 54.4156 13.6628C53.5586 15.2542 52.964 16.2073 52.6318 16.5221C52.1596 16.9593 51.6349 17.5277 51.0578 18.2272ZM50.7168 11.8527C50.5244 12.0276 50.3015 12.6222 50.0479 13.6365C49.7943 14.6508 49.7462 15.2367 49.9036 15.3941C49.991 15.464 50.1353 15.3897 50.3364 15.1711C50.5376 14.9525 50.7824 14.6115 51.0709 14.1481C51.3595 13.6846 51.6437 13.1294 51.9235 12.4823C52.5006 11.3281 52.7892 10.6985 52.7892 10.5936C52.7892 10.5411 53.0602 9.94652 53.6024 8.80979C54.1445 7.69054 54.4156 7.0085 54.4156 6.76367C54.4156 6.25651 54.1882 6.20404 53.7335 6.60627C53.4362 6.83362 53.1477 7.19213 52.8679 7.6818C52.4306 8.48625 52.0197 9.13332 51.6349 9.62299C51.2852 10.0777 51.1103 10.5061 51.1103 10.9084C51.1103 11.2931 50.9791 11.6079 50.7168 11.8527Z" fill="#22221A"/>
<path d="M45.0773 11.1179C44.5876 11.2403 44.1067 11.0654 43.6345 10.5933C43.3022 10.261 43.1273 10.0424 43.1098 9.93746C43.0923 9.83253 43.2148 9.67514 43.4771 9.46528C43.8443 9.20295 44.3121 9.07179 44.8805 9.07179C45.4489 9.07179 45.838 9.20295 46.0479 9.46528C46.2752 9.76258 46.2883 10.0861 46.0872 10.4359C45.8861 10.7856 45.5494 11.013 45.0773 11.1179ZM49.7466 23.6832C49.869 23.893 49.8734 24.0942 49.7597 24.2865C49.646 24.4789 49.3269 24.7937 48.8022 25.2309C47.9803 25.9304 47.0097 26.5687 45.8905 27.1459C45.051 27.5656 44.181 27.7361 43.2803 27.6574C42.3797 27.5787 41.5315 27.3207 40.7358 26.8835C39.9401 26.4463 39.2537 25.878 38.6766 25.1784C37.8546 24.1991 37.6098 22.8962 37.9421 21.2698C37.977 21.1474 38.047 20.7277 38.1519 20.0107C38.2569 19.2937 38.3662 18.6597 38.4798 18.1088C38.5935 17.5579 38.7203 17.1951 38.8602 17.0202C39.0176 16.8278 39.2755 16.6967 39.634 16.6267C39.9926 16.5567 40.3642 16.5524 40.7489 16.6136C41.1337 16.6748 41.5009 16.7885 41.8507 16.9546C42.2004 17.1207 42.4409 17.3437 42.5721 17.6235C42.7032 17.9033 42.6989 18.2181 42.559 18.5679C42.1567 19.4073 41.9556 19.9932 41.9556 20.3255C41.9556 20.6402 41.7807 21.0337 41.431 21.5059C41.1337 21.8557 40.9544 22.2798 40.8932 22.7782C40.832 23.2766 40.9151 23.6045 41.1424 23.7619C41.3348 23.8318 41.431 24.0504 41.431 24.4177C41.431 24.7325 41.6583 25.091 42.113 25.4932C42.4278 25.7905 42.677 25.9567 42.8606 25.9916C43.0443 26.0266 43.3809 25.9829 43.8706 25.8605C44.5876 25.5981 45.5057 25.0648 46.625 24.2603C47.5169 23.6132 48.1945 23.246 48.658 23.1585C49.1214 23.0711 49.4843 23.246 49.7466 23.6832Z" fill="#22221A"/>
<path d="M39.3623 23.8141C39.7471 23.4993 40.0794 23.3681 40.3592 23.4206C40.639 23.473 40.7876 23.7529 40.8051 24.26C40.8051 24.3824 40.7833 24.5092 40.7395 24.6404C40.6958 24.7715 40.6259 24.8983 40.5297 25.0207C40.4335 25.1432 40.3417 25.2525 40.2542 25.3487C40.1668 25.4448 40.0488 25.5498 39.9001 25.6634C39.7515 25.7771 39.629 25.8646 39.5329 25.9258C39.4367 25.987 39.3099 26.07 39.1525 26.175C38.9951 26.2799 38.8902 26.3499 38.8377 26.3848C38.418 26.6646 37.9895 26.9007 37.5523 27.0931C37.2725 27.2155 36.8003 27.386 36.1358 27.6046C35.4712 27.8232 34.623 28.0681 33.5912 28.3391C32.5594 28.6102 31.5539 28.7151 30.5745 28.6539C29.5952 28.5927 28.8607 28.3173 28.371 27.8276C28.1786 27.6352 27.96 27.3554 27.7152 26.9882C27.4704 26.6209 27.2561 26.2624 27.0725 25.9126C26.8889 25.5629 26.7533 25.2743 26.6659 25.047C26.4386 24.4349 26.3336 23.5867 26.3511 22.5024C26.5085 19.1972 27.9251 16.3641 30.6007 14.0032C31.2303 13.4785 31.6938 13.1594 31.9911 13.0457C32.2884 12.932 32.848 12.8752 33.6699 12.8752C35.1739 12.8752 36.3238 13.2075 37.1195 13.872C37.9152 14.5366 38.2169 15.411 38.0245 16.4952C37.9021 17.0374 37.784 17.374 37.6704 17.5052C37.5567 17.6364 37.2987 17.7282 36.8965 17.7806C36.3544 17.8331 35.8428 17.7238 35.3619 17.4527C34.881 17.1817 34.693 16.8887 34.7979 16.5739C34.9029 16.3116 34.846 16.0449 34.6274 15.7739C34.4088 15.5028 34.1421 15.3673 33.8273 15.3673C33.2502 15.3673 32.3714 15.975 31.191 17.1904C30.0105 18.4058 29.4203 19.3196 29.4203 19.9317C29.4203 20.159 29.2979 20.4913 29.053 20.9285C28.7907 21.3132 28.6683 21.9778 28.6858 22.9222C28.7208 23.849 28.8694 24.5048 29.1317 24.8896C29.5515 25.5192 30.2554 25.952 31.2434 26.1881C32.2315 26.4242 33.1365 26.4635 33.9585 26.3061C34.3957 26.2362 34.8679 26.0963 35.375 25.8864C36.3019 25.5192 37.1501 25.0382 37.9196 24.4436C38.5142 24.0064 38.9251 23.8403 39.1525 23.9452C39.17 23.9452 39.2006 23.9277 39.2443 23.8928C39.288 23.8578 39.3274 23.8316 39.3623 23.8141Z" fill="#22221A"/>
<path d="M26.1231 23.5257C26.5078 23.2109 26.8445 23.0797 27.133 23.1322C27.4216 23.1847 27.5659 23.4645 27.5659 23.9716C27.5659 24.129 27.5309 24.2864 27.4609 24.4438C27.391 24.6012 27.3123 24.7324 27.2248 24.8373C27.1374 24.9422 27.0062 25.069 26.8314 25.2177C26.6565 25.3663 26.5209 25.4756 26.4248 25.5456C26.3286 25.6155 26.1799 25.7161 25.9788 25.8472C25.7777 25.9784 25.6509 26.0615 25.5984 26.0964C24.3568 26.9534 23.7185 27.4081 23.6835 27.4605C23.5785 27.5655 23.3206 27.6791 22.9096 27.8015C22.4986 27.924 22.1795 27.9852 21.9521 27.9852C21.6548 28.0726 21.3925 28.1163 21.1652 28.1163C20.9378 28.1163 20.6799 28.077 20.3913 27.9983C20.1028 27.9196 19.8929 27.854 19.7617 27.8015C19.6306 27.7491 19.5213 27.7054 19.4338 27.6704C18.9617 27.443 18.3146 26.9446 17.4927 26.1751L16.4696 25.2046L15.158 26.1751C14.2486 26.7872 13.2605 27.1632 12.1937 27.3031C11.3018 27.3906 10.4536 27.2944 9.64919 27.0146C8.84473 26.7348 8.21078 26.2495 7.74735 25.5587C7.28391 24.8679 7.14838 24.0416 7.34075 23.0797C7.5506 22.0654 8.05339 20.9505 8.8491 19.7351C9.64482 18.5197 10.4886 17.4835 11.3805 16.6266C12.0626 15.9795 12.6047 15.656 13.0069 15.656C13.1993 15.656 13.4616 15.8309 13.7939 16.1806C14.0212 16.4255 14.1305 16.6266 14.1218 16.784C14.1131 16.9414 13.9775 17.2649 13.7152 17.7546C11.5641 21.9692 11.0045 24.2602 12.0363 24.6274L12.2462 24.6537C12.9632 24.7586 13.9513 24.164 15.2104 22.8699C16.4696 21.5757 17.344 20.2641 17.8337 18.935C18.2009 18.0431 18.6469 17.2387 19.1715 16.5217C19.6262 15.8921 19.9585 15.5379 20.1683 15.4592C20.3782 15.3806 20.7717 15.4899 21.3488 15.7872C21.8385 16.0495 22.0964 16.3468 22.1227 16.6791C22.1489 17.0113 21.9696 17.5447 21.5849 18.2792C21.3925 18.5765 21.2351 18.9088 21.1127 19.276C20.9903 19.6258 20.8941 19.9406 20.8242 20.2204C20.7892 20.3079 20.7455 20.4696 20.693 20.7057C20.6405 20.9418 20.5881 21.1385 20.5356 21.2959C20.4307 21.7331 20.3345 22.0917 20.247 22.3715C20.0722 23.106 19.9847 23.8011 19.9847 24.4569C19.9847 25.1127 20.0897 25.5456 20.2995 25.7554C20.4744 25.9303 20.8504 26.0352 21.4275 26.0702C21.5149 26.0352 21.751 25.9522 22.1358 25.821C22.5205 25.6898 22.7828 25.5893 22.9227 25.5193C24.2693 24.8198 25.3361 24.1553 26.1231 23.5257Z" fill="#22221A"/>
<path d="M4.32833 18.2272C3.75122 18.9267 3.25281 19.5825 2.83309 20.1946C2.41337 20.8067 2.221 21.1914 2.25598 21.3488C2.25598 21.6286 2.50081 22.267 2.99048 23.2638C3.58508 24.4005 4.27587 24.9689 5.06284 24.9689C5.22023 24.9689 5.382 24.9514 5.54813 24.9164C5.71427 24.8814 5.92413 24.8202 6.17771 24.7328C6.43129 24.6454 6.59305 24.5929 6.66301 24.5754C6.85538 24.5229 7.17016 24.3655 7.60737 24.1032C8.1495 23.7709 8.66541 23.4124 9.15508 23.0277C9.53982 22.6954 9.87647 22.5599 10.165 22.6211C10.4536 22.6823 10.6066 22.9577 10.6241 23.4474C10.6241 23.6048 10.5847 23.7622 10.506 23.9196C10.4273 24.077 10.3443 24.2125 10.2568 24.3262C10.1694 24.4399 10.0426 24.571 9.87646 24.7197C9.71033 24.8683 9.57479 24.9776 9.46986 25.0476C9.36494 25.1175 9.21629 25.2181 9.02391 25.3493C8.83154 25.4804 8.70913 25.5635 8.65666 25.5985C8.51676 25.6859 8.3069 25.8171 8.02709 25.9919C7.74728 26.1668 7.53742 26.298 7.39751 26.3854C6.80291 26.7877 6.19957 27.0238 5.58748 27.0937C4.99288 27.1811 4.54693 27.1855 4.24963 27.1068C3.95233 27.0281 3.51513 26.7964 2.93802 26.4117C2.20351 25.9045 1.60892 25.3536 1.15422 24.759C0.699528 24.1644 0.393485 23.5961 0.236091 23.0539C0.0786969 22.5118 0 21.8822 0 21.1652C0 20.4482 0.0437205 19.8055 0.131162 19.2371C0.218603 18.6688 0.327904 17.9692 0.459065 17.1385C0.590227 16.3079 0.664552 15.5952 0.68204 15.0006C0.699528 14.7733 0.721389 14.5372 0.747621 14.2923C0.773853 14.0475 0.800085 13.8245 0.826318 13.6234C0.85255 13.4223 0.891899 13.1818 0.944363 12.902C0.996828 12.6222 1.03618 12.4036 1.06241 12.2462C1.08864 12.0888 1.14548 11.8571 1.23292 11.5511C1.32036 11.245 1.3772 11.0308 1.40343 10.9084C1.42966 10.786 1.49087 10.5542 1.58705 10.2132C1.68324 9.87219 1.74445 9.65796 1.77068 9.57052C1.79691 9.48308 1.86687 9.25136 1.98054 8.87537C2.09421 8.49937 2.15979 8.27639 2.17728 8.20644C2.36965 7.55938 2.53579 7.0872 2.6757 6.7899C2.83309 6.47511 3.04732 6.16469 3.31839 5.85865C3.58945 5.55261 3.83429 5.3034 4.05289 5.11103C4.27149 4.91866 4.56442 4.67382 4.93167 4.37653C5.07158 4.2716 5.31204 4.07923 5.65306 3.79941C5.99408 3.5196 6.24329 3.32286 6.40068 3.20919C6.55808 3.09551 6.77231 2.93812 7.04338 2.73701C7.31444 2.53589 7.57677 2.36101 7.83035 2.21236C8.08392 2.06371 8.35936 1.91943 8.65666 1.77953C9.32121 1.44725 9.83712 1.32483 10.2044 1.41227C10.4842 1.48223 10.7203 1.63525 10.9126 1.87134C11.105 2.10743 11.2362 2.37413 11.3061 2.67143C11.3586 2.88128 11.3979 3.09551 11.4242 3.31412C11.4504 3.53272 11.4548 3.76881 11.4373 4.02239C11.4198 4.27597 11.4067 4.4902 11.3979 4.66508C11.3892 4.83996 11.3498 5.07605 11.2799 5.37335C11.2099 5.67065 11.1618 5.88488 11.1356 6.01605C11.1094 6.14721 11.0394 6.37455 10.9258 6.69808C10.8121 7.02162 10.7421 7.2271 10.7159 7.31454C10.6897 7.40199 10.611 7.62496 10.4798 7.98347C10.3486 8.34198 10.2743 8.54746 10.2568 8.59993C9.81963 9.77164 9.46986 10.5411 9.20754 10.9084C9.03266 11.1532 8.5255 12.0713 7.68607 13.6628C6.82914 15.2542 6.23455 16.2073 5.90227 16.5221C5.43009 16.9593 4.90544 17.5277 4.32833 18.2272ZM3.98731 11.8527C3.79494 12.0276 3.57197 12.6222 3.31839 13.6365C3.06481 14.6508 3.01672 15.2367 3.17411 15.3941C3.26155 15.464 3.40583 15.3897 3.60694 15.1711C3.80806 14.9525 4.05289 14.6115 4.34145 14.1481C4.63 13.6846 4.91419 13.1294 5.194 12.4823C5.77111 11.3281 6.05966 10.6985 6.05966 10.5936C6.05966 10.5411 6.33073 9.94652 6.87287 8.80979C7.415 7.69054 7.68607 7.0085 7.68607 6.76367C7.68607 6.25651 7.45872 6.20404 7.00403 6.60627C6.70673 6.83362 6.41817 7.19213 6.13836 7.6818C5.70116 8.48625 5.29018 9.13332 4.90544 9.62299C4.55568 10.0777 4.3808 10.5061 4.3808 10.9084C4.3808 11.2931 4.24963 11.6079 3.98731 11.8527Z" fill="#22221A"/>
</svg>
